<svg width="742" height="92" viewBox="0 0 742 92" fill="none" xmlns="http://www.w3.org/2000/svg">
<path opacity="0.8" d="M151.008 90C147.968 90 144.928 89.92 141.888 89.76C138.848 89.6 136.048 89.08 133.488 88.2C130.928 87.24 128.728 85.76 126.888 83.76C125.128 81.68 123.928 78.8 123.288 75.12C122.568 70.56 122.168 65.92 122.088 61.2C122.008 56.48 121.968 51.8 121.968 47.16C121.968 42.52 121.968 37.84 121.968 33.12C122.048 28.32 122.488 23.64 123.288 19.08C123.928 15.72 125.288 13.08 127.368 11.16C129.448 9.16 131.928 7.63999 134.808 6.59999C137.688 5.56 140.728 4.92 143.928 4.68C147.128 4.36 150.088 4.2 152.808 4.2C156.648 4.2 160.648 4.64 164.808 5.51999C168.968 6.32 172.768 7.72 176.208 9.72C179.728 11.64 182.608 14.2 184.848 17.4C187.088 20.52 188.208 24.4 188.208 29.04C188.208 30.72 188.088 32.4 187.848 34.08C187.608 35.76 187.168 37.4 186.528 39C189.568 41.64 191.888 45 193.488 49.08C195.088 53.16 195.888 57.2 195.888 61.2C195.888 64.96 195.168 68.28 193.728 71.16C192.368 74.04 190.488 76.56 188.088 78.72C185.768 80.8 183.088 82.56 180.048 84C177.008 85.44 173.808 86.6 170.448 87.48C167.168 88.36 163.848 89 160.488 89.4C157.128 89.8 153.968 90 151.008 90ZM153.768 30.96C153.768 32.24 154.168 33.28 154.968 34.08C155.848 34.8 156.888 35.16 158.088 35.16C159.368 35.16 160.368 34.8 161.088 34.08C161.888 33.28 162.288 32.24 162.288 30.96C162.288 29.68 161.888 28.64 161.088 27.84C160.368 27.04 159.368 26.64 158.088 26.64C156.808 26.64 155.768 27.04 154.968 27.84C154.168 28.64 153.768 29.68 153.768 30.96ZM153.768 59.76C153.768 61.12 154.208 62.24 155.088 63.12C156.048 64 157.208 64.44 158.568 64.44C159.928 64.44 161.048 64 161.928 63.12C162.888 62.24 163.368 61.12 163.368 59.76C163.368 58.4 162.928 57.28 162.048 56.4C161.168 55.44 160.008 54.96 158.568 54.96C157.208 54.96 156.048 55.4 155.088 56.28C154.208 57.16 153.768 58.32 153.768 59.76ZM237.193 77.4C233.993 77.4 230.753 77.28 227.473 77.04C226.513 78.72 225.473 80.36 224.353 81.96C223.313 83.48 222.113 84.84 220.753 86.04C219.473 87.24 217.993 88.2 216.313 88.92C214.633 89.64 212.713 90 210.553 90C208.473 90 206.513 89.64 204.673 88.92C202.913 88.12 201.393 87.08 200.113 85.8C198.833 84.44 197.833 82.88 197.113 81.12C196.393 79.36 196.033 77.44 196.033 75.36C196.033 72.72 196.393 69.72 197.113 66.36C197.913 63 198.953 59.44 200.233 55.68C201.593 51.92 203.073 48.12 204.673 44.28C206.353 40.36 208.073 36.6 209.833 33C211.593 29.32 213.313 25.92 214.993 22.8C216.753 19.6 218.313 16.84 219.673 14.52C220.553 13 221.593 11.56 222.793 10.2C224.073 8.76 225.473 7.52 226.993 6.48C228.513 5.43999 230.113 4.6 231.793 3.96C233.553 3.32 235.353 3 237.193 3C239.033 3 240.793 3.32 242.473 3.96C244.233 4.6 245.873 5.43999 247.393 6.48C248.913 7.52 250.273 8.76 251.473 10.2C252.753 11.56 253.833 13 254.713 14.52C256.153 16.84 257.713 19.6 259.393 22.8C261.073 25.92 262.793 29.32 264.553 33C266.313 36.6 267.993 40.36 269.593 44.28C271.273 48.12 272.753 51.92 274.033 55.68C275.393 59.44 276.433 63 277.153 66.36C277.953 69.72 278.353 72.72 278.353 75.36C278.353 77.44 277.993 79.36 277.273 81.12C276.553 82.88 275.553 84.44 274.273 85.8C272.993 87.08 271.433 88.12 269.593 88.92C267.833 89.64 265.913 90 263.833 90C261.673 90 259.753 89.64 258.073 88.92C256.393 88.2 254.873 87.24 253.513 86.04C252.233 84.84 251.033 83.48 249.913 81.96C248.873 80.36 247.873 78.72 246.913 77.04C243.713 77.28 240.473 77.4 237.193 77.4ZM232.393 53.88C232.393 55.32 232.833 56.48 233.713 57.36C234.593 58.24 235.753 58.68 237.193 58.68C238.553 58.68 239.673 58.24 240.553 57.36C241.513 56.48 241.993 55.32 241.993 53.88C241.993 52.52 241.513 51.4 240.553 50.52C239.673 49.56 238.553 49.08 237.193 49.08C235.753 49.08 234.593 49.56 233.713 50.52C232.833 51.4 232.393 52.52 232.393 53.88ZM280.823 31.08C280.823 26.28 281.863 22.12 283.943 18.6C286.023 15 288.703 12.08 291.983 9.83999C295.343 7.52 299.103 5.8 303.263 4.68C307.423 3.56 311.583 3 315.743 3C318.783 3 322.183 3.32 325.943 3.96C329.783 4.52 333.343 5.56 336.623 7.07999C339.983 8.59999 342.783 10.72 345.023 13.44C347.343 16.08 348.503 19.44 348.503 23.52C348.503 28.8 347.143 32.44 344.423 34.44C341.783 36.44 338.103 37.44 333.383 37.44C329.383 37.44 325.343 37 321.263 36.12C317.263 35.24 313.343 34.32 309.503 33.36L309.143 34.56C312.183 35.44 315.343 36.28 318.623 37.08C321.903 37.88 325.143 38.76 328.343 39.72C331.543 40.68 334.583 41.84 337.463 43.2C340.343 44.56 342.863 46.24 345.023 48.24C347.263 50.24 349.023 52.68 350.303 55.56C351.583 58.36 352.223 61.76 352.223 65.76C352.223 71.12 350.943 75.48 348.383 78.84C345.823 82.2 342.583 84.84 338.663 86.76C334.743 88.68 330.423 90 325.703 90.72C320.983 91.44 316.503 91.8 312.263 91.8C310.103 91.8 307.743 91.64 305.183 91.32C302.703 91.08 300.223 90.64 297.743 90C295.263 89.28 292.863 88.36 290.543 87.24C288.223 86.12 286.183 84.76 284.423 83.16C282.663 81.56 281.223 79.72 280.103 77.64C279.063 75.48 278.543 73.04 278.543 70.32C278.543 67.92 278.943 65.84 279.743 64.08C280.623 62.24 281.783 60.72 283.223 59.52C284.663 58.32 286.343 57.44 288.263 56.88C290.263 56.24 292.383 55.92 294.623 55.92C299.663 55.92 304.663 56.32 309.623 57.12C314.663 57.92 319.663 58.88 324.623 60L324.863 58.8C322.463 58.16 319.663 57.52 316.463 56.88C313.343 56.16 310.143 55.36 306.863 54.48C303.663 53.52 300.503 52.4 297.383 51.12C294.263 49.84 291.463 48.28 288.983 46.44C286.503 44.6 284.503 42.44 282.983 39.96C281.543 37.4 280.823 34.44 280.823 31.08ZM406.133 47.16C406.133 48.84 405.773 50.28 405.053 51.48C404.333 52.68 403.133 53.64 401.453 54.36C399.773 55.08 397.573 55.6 394.853 55.92C392.213 56.24 388.933 56.4 385.013 56.4L384.893 58.56C387.693 58.56 390.933 58.64 394.613 58.8C398.293 58.96 401.773 59.56 405.053 60.6C408.333 61.56 411.093 63.12 413.333 65.28C415.653 67.36 416.813 70.32 416.813 74.16C416.813 76.96 416.173 79.32 414.893 81.24C413.693 83.08 412.093 84.6 410.093 85.8C408.173 86.92 405.933 87.8 403.373 88.44C400.813 89 398.213 89.4 395.573 89.64C393.013 89.88 390.453 90 387.893 90C385.413 90 383.213 90 381.293 90C373.453 90 367.533 88.92 363.533 86.76C359.533 84.6 356.693 81.6 355.013 77.76C353.413 73.92 352.573 69.4 352.493 64.2C352.413 58.92 352.373 53.2 352.373 47.04C352.373 40.88 352.413 35.2 352.493 30C352.573 24.72 353.413 20.16 355.013 16.32C356.693 12.48 359.533 9.47999 363.533 7.32C367.533 5.16 373.453 4.08 381.293 4.08C383.213 4.08 385.413 4.08 387.893 4.08C390.453 4.08 393.013 4.2 395.573 4.43999C398.213 4.67999 400.813 5.12 403.373 5.76C405.933 6.31999 408.173 7.2 410.093 8.4C412.093 9.52 413.693 11.04 414.893 12.96C416.173 14.8 416.813 17.12 416.813 19.92C416.813 23.76 415.653 26.76 413.333 28.92C411.093 31 408.333 32.56 405.053 33.6C401.773 34.56 398.293 35.12 394.613 35.28C390.933 35.44 387.693 35.52 384.893 35.52L385.013 37.68C392.613 37.68 398.013 38.44 401.213 39.96C404.493 41.4 406.133 43.8 406.133 47.16ZM463.293 31.32C464.333 28.04 465.573 24.8 467.013 21.6C468.533 18.32 470.333 15.4 472.413 12.84C474.573 10.28 477.133 8.2 480.093 6.59999C483.053 5 486.493 4.2 490.413 4.2C494.333 4.2 497.533 5 500.013 6.59999C502.493 8.11999 504.453 10.2 505.893 12.84C507.413 15.4 508.493 18.32 509.133 21.6C509.853 24.88 510.293 28.24 510.453 31.68C510.693 35.12 510.773 38.52 510.693 41.88C510.613 45.16 510.573 48.12 510.573 50.76C510.573 52.92 510.573 55.4 510.573 58.2C510.653 61 510.573 63.88 510.333 66.84C510.173 69.72 509.773 72.56 509.133 75.36C508.573 78.08 507.693 80.56 506.493 82.8C505.293 84.96 503.693 86.72 501.693 88.08C499.773 89.36 497.293 90 494.253 90C491.373 90 488.933 89.44 486.933 88.32C485.013 87.2 483.453 85.72 482.253 83.88C481.053 82.04 480.133 79.96 479.493 77.64C478.933 75.24 478.493 72.8 478.173 70.32C477.933 67.76 477.813 65.24 477.813 62.76C477.813 60.28 477.813 58.04 477.813 56.04C477.253 57.56 476.533 59.48 475.653 61.8C474.853 64.12 473.853 66.4 472.653 68.64C471.533 70.8 470.173 72.68 468.573 74.28C467.053 75.88 465.293 76.68 463.293 76.68C461.293 76.68 459.493 75.88 457.893 74.28C456.373 72.68 455.013 70.8 453.813 68.64C452.693 66.4 451.693 64.12 450.813 61.8C450.013 59.48 449.333 57.56 448.773 56.04C448.773 58.04 448.773 60.28 448.773 62.76C448.773 65.24 448.613 67.76 448.293 70.32C448.053 72.8 447.613 75.24 446.973 77.64C446.413 79.96 445.533 82.04 444.333 83.88C443.133 85.72 441.533 87.2 439.533 88.32C437.613 89.44 435.213 90 432.333 90C429.293 90 426.773 89.36 424.773 88.08C422.853 86.72 421.293 84.96 420.093 82.8C418.893 80.56 417.973 78.08 417.333 75.36C416.773 72.56 416.373 69.72 416.133 66.84C415.973 63.88 415.893 61 415.893 58.2C415.973 55.4 416.013 52.92 416.013 50.76C416.013 48.12 415.973 45.16 415.893 41.88C415.813 38.52 415.853 35.12 416.013 31.68C416.253 28.24 416.693 24.88 417.333 21.6C418.053 18.32 419.133 15.4 420.573 12.84C422.093 10.2 424.093 8.11999 426.573 6.59999C429.133 5 432.333 4.2 436.173 4.2C440.173 4.2 443.613 5 446.493 6.59999C449.453 8.2 451.973 10.28 454.053 12.84C456.213 15.4 458.013 18.32 459.453 21.6C460.973 24.8 462.253 28.04 463.293 31.32ZM564.697 47.16C564.697 48.84 564.337 50.28 563.617 51.48C562.897 52.68 561.697 53.64 560.017 54.36C558.337 55.08 556.137 55.6 553.417 55.92C550.777 56.24 547.497 56.4 543.577 56.4L543.457 58.56C546.257 58.56 549.497 58.64 553.177 58.8C556.857 58.96 560.337 59.56 563.617 60.6C566.897 61.56 569.657 63.12 571.897 65.28C574.217 67.36 575.377 70.32 575.377 74.16C575.377 76.96 574.737 79.32 573.457 81.24C572.257 83.08 570.657 84.6 568.657 85.8C566.737 86.92 564.497 87.8 561.937 88.44C559.377 89 556.777 89.4 554.137 89.64C551.577 89.88 549.017 90 546.457 90C543.977 90 541.777 90 539.857 90C532.017 90 526.097 88.92 522.097 86.76C518.097 84.6 515.257 81.6 513.577 77.76C511.977 73.92 511.137 69.4 511.057 64.2C510.977 58.92 510.937 53.2 510.937 47.04C510.937 40.88 510.977 35.2 511.057 30C511.137 24.72 511.977 20.16 513.577 16.32C515.257 12.48 518.097 9.47999 522.097 7.32C526.097 5.16 532.017 4.08 539.857 4.08C541.777 4.08 543.977 4.08 546.457 4.08C549.017 4.08 551.577 4.2 554.137 4.43999C556.777 4.67999 559.377 5.12 561.937 5.76C564.497 6.31999 566.737 7.2 568.657 8.4C570.657 9.52 572.257 11.04 573.457 12.96C574.737 14.8 575.377 17.12 575.377 19.92C575.377 23.76 574.217 26.76 571.897 28.92C569.657 31 566.897 32.56 563.617 33.6C560.337 34.56 556.857 35.12 553.177 35.28C549.497 35.44 546.257 35.52 543.457 35.52L543.577 37.68C551.177 37.68 556.577 38.44 559.777 39.96C563.057 41.4 564.697 43.8 564.697 47.16ZM637.458 90C634.338 90 631.538 89.52 629.058 88.56C626.578 87.52 624.338 86.16 622.338 84.48C620.418 82.72 618.698 80.72 617.178 78.48C615.738 76.24 614.418 73.88 613.218 71.4C612.098 68.84 611.058 66.24 610.098 63.6C609.138 60.96 608.218 58.44 607.338 56.04C607.338 58.04 607.338 60.28 607.338 62.76C607.338 65.24 607.178 67.76 606.858 70.32C606.618 72.8 606.178 75.24 605.538 77.64C604.978 79.96 604.098 82.04 602.898 83.88C601.698 85.72 600.098 87.2 598.098 88.32C596.178 89.44 593.778 90 590.898 90C588.498 90 586.418 89.64 584.658 88.92C582.978 88.12 581.538 87.08 580.338 85.8C579.218 84.44 578.298 82.88 577.578 81.12C576.938 79.28 576.418 77.28 576.018 75.12C575.378 71.12 574.978 67.12 574.818 63.12C574.658 59.04 574.578 54.96 574.578 50.88C574.578 48.24 574.538 45.28 574.458 42C574.378 38.64 574.418 35.24 574.578 31.8C574.818 28.36 575.258 25 575.897 21.72C576.618 18.36 577.698 15.4 579.138 12.84C580.658 10.2 582.658 8.11999 585.138 6.59999C587.698 5 590.898 4.2 594.738 4.2C599.458 4.2 603.418 5.28 606.618 7.44C609.898 9.6 612.658 12.36 614.898 15.72C617.138 19.08 619.018 22.76 620.538 26.76C622.058 30.76 623.458 34.56 624.738 38.16C624.738 36.16 624.738 33.92 624.738 31.44C624.818 28.96 624.978 26.48 625.218 24C625.458 21.44 625.858 19 626.418 16.68C627.058 14.28 627.978 12.16 629.178 10.32C630.378 8.48 631.938 7 633.858 5.88C635.858 4.76 638.298 4.2 641.178 4.2C643.578 4.2 645.618 4.56 647.298 5.28C649.058 6 650.498 7.04 651.618 8.4C652.818 9.68 653.778 11.24 654.498 13.08C655.218 14.92 655.738 16.92 656.058 19.08C656.698 23.08 657.098 27.12 657.258 31.2C657.418 35.2 657.498 39.24 657.498 43.32C657.498 45.96 657.538 48.96 657.618 52.32C657.698 55.6 657.618 58.96 657.378 62.4C657.218 65.84 656.818 69.24 656.178 72.6C655.538 75.88 654.458 78.84 652.938 81.48C651.498 84.04 649.498 86.12 646.938 87.72C644.458 89.24 641.298 90 637.458 90ZM682.5 36.84C679.86 36.76 677.1 36.48 674.22 36C671.34 35.52 668.66 34.68 666.18 33.48C663.78 32.28 661.78 30.64 660.18 28.56C658.58 26.4 657.78 23.68 657.78 20.4C657.78 17.04 658.66 14.32 660.42 12.24C662.26 10.08 664.5 8.4 667.14 7.19999C669.86 5.99999 672.78 5.2 675.9 4.8C679.02 4.4 681.9 4.2 684.54 4.2H712.38C715.02 4.2 717.9 4.4 721.02 4.8C724.14 5.2 727.02 5.99999 729.66 7.19999C732.38 8.4 734.62 10.08 736.38 12.24C738.22 14.32 739.14 17.04 739.14 20.4C739.14 23.6 738.34 26.28 736.74 28.44C735.22 30.52 733.26 32.16 730.86 33.36C728.54 34.56 725.94 35.44 723.06 36C720.26 36.48 717.54 36.76 714.9 36.84C715.14 42.12 715.26 47.36 715.26 52.56C715.26 56.4 715.14 60.2 714.9 63.96C714.74 67.64 714.34 71.36 713.7 75.12C712.98 79.44 711.5 83 709.26 85.8C707.1 88.6 703.62 90 698.82 90C693.94 90 690.38 88.64 688.14 85.92C685.9 83.2 684.42 79.6 683.7 75.12C683.06 70.88 682.66 66.64 682.5 62.4C682.42 58.16 682.38 53.88 682.38 49.56C682.38 47.48 682.38 45.4 682.38 43.32C682.38 41.16 682.42 39 682.5 36.84Z" fill="white"/>
<path d="M46.8232 0.379883C70.9112 0.379959 91.3539 13.594 93.1953 39.6943C93.8715 49.2802 97.3443 89.9335 80.8887 90.332C76.0914 90.4489 74.3935 84.5886 70.4893 84.5596C66.5423 84.5306 64.465 90.3296 59.5898 90.332C54.9712 90.3343 52.8621 84.5631 49.041 84.5596C44.8386 84.5561 43.3466 90.29 38.2227 90.332C32.0896 90.3819 28.2874 84.0962 27.0527 78.918C5.10717 76.9895 0 56.5647 0 38.1045C0.000207654 11.9141 24.0674 0.379883 46.8232 0.379883ZM51.7227 33.9785C49.0142 33.9785 46.8184 36.1743 46.8184 38.8828V47.4629C46.8186 50.1712 49.0143 52.3662 51.7227 52.3662C54.431 52.3661 56.6267 50.1712 56.627 47.4629V38.8828C56.6269 36.1744 54.4311 33.9786 51.7227 33.9785ZM72.292 33.9785C69.5835 33.9788 67.3887 36.1745 67.3887 38.8828V47.4629C67.3889 50.1711 69.5837 52.366 72.292 52.3662C75.0005 52.3662 77.196 50.1712 77.1963 47.4629V38.8828C77.1962 36.1743 75.0006 33.9785 72.292 33.9785Z" fill="white"/>
</svg>
