<svg width="742" height="92" viewBox="0 0 742 92" fill="none" xmlns="http://www.w3.org/2000/svg">
<path opacity="0.8" d="M151.008 90C147.968 90 144.928 89.92 141.888 89.76C138.848 89.6 136.048 89.08 133.488 88.2C130.928 87.24 128.728 85.76 126.888 83.76C125.128 81.68 123.928 78.8 123.288 75.12C122.568 70.56 122.168 65.92 122.088 61.2C122.008 56.48 121.968 51.8 121.968 47.16C121.968 42.52 121.968 37.84 121.968 33.12C122.048 28.32 122.488 23.64 123.288 19.08C123.928 15.72 125.288 13.08 127.368 11.16C129.448 9.16 131.928 7.63999 134.808 6.59999C137.688 5.56 140.728 4.92 143.928 4.68C147.128 4.36 150.088 4.2 152.808 4.2C156.648 4.2 160.648 4.64 164.808 5.51999C168.968 6.32 172.768 7.72 176.208 9.72C179.728 11.64 182.608 14.2 184.848 17.4C187.088 20.52 188.208 24.4 188.208 29.04C188.208 30.72 188.088 32.4 187.848 34.08C187.608 35.76 187.168 37.4 186.528 39C189.568 41.64 191.888 45 193.488 49.08C195.088 53.16 195.888 57.2 195.888 61.2C195.888 64.96 195.168 68.28 193.728 71.16C192.368 74.04 190.488 76.56 188.088 78.72C185.768 80.8 183.088 82.56 180.048 84C177.008 85.44 173.808 86.6 170.448 87.48C167.168 88.36 163.848 89 160.488 89.4C157.128 89.8 153.968 90 151.008 90ZM153.768 30.96C153.768 32.24 154.168 33.28 154.968 34.08C155.848 34.8 156.888 35.16 158.088 35.16C159.368 35.16 160.368 34.8 161.088 34.08C161.888 33.28 162.288 32.24 162.288 30.96C162.288 29.68 161.888 28.64 161.088 27.84C160.368 27.04 159.368 26.64 158.088 26.64C156.808 26.64 155.768 27.04 154.968 27.84C154.168 28.64 153.768 29.68 153.768 30.96ZM153.768 59.76C153.768 61.12 154.208 62.24 155.088 63.12C156.048 64 157.208 64.44 158.568 64.44C159.928 64.44 161.048 64 161.928 63.12C162.888 62.24 163.368 61.12 163.368 59.76C163.368 58.4 162.928 57.28 162.048 56.4C161.168 55.44 160.008 54.96 158.568 54.96C157.208 54.96 156.048 55.4 155.088 56.28C154.208 57.16 153.768 58.32 153.768 59.76ZM237.193 77.4C233.993 77.4 230.753 77.28 227.473 77.04C226.513 78.72 225.473 80.36 224.353 81.96C223.313 83.48 222.113 84.84 220.753 86.04C219.473 87.24 217.993 88.2 216.313 88.92C214.633 89.64 212.713 90 210.553 90C208.473 90 206.353 89.72 204.193 89.16C202.033 88.6 200.033 87.68 198.193 86.4C196.433 85.04 194.993 83.28 193.873 81.12C192.753 78.96 192.193 76.32 192.193 73.2C192.193 72.24 192.193 71.32 192.193 70.44C192.273 69.56 192.353 68.68 192.433 67.8C192.593 66.84 192.753 65.88 192.913 64.92C193.073 63.96 193.313 62.92 193.633 61.8C190.913 57.56 189.553 52.96 189.553 48C189.553 40.56 191.553 34.12 195.553 28.68C199.633 23.16 205.033 19.12 211.753 16.56C218.473 13.92 225.913 12.6 234.073 12.6C241.913 12.6 248.993 13.68 255.313 15.84C261.713 17.92 266.753 21.24 270.433 25.8C274.113 30.28 275.953 36.16 275.953 43.44C275.953 50.72 274.233 56.64 270.793 61.2C267.433 65.76 262.953 69.16 257.353 71.4C251.753 73.56 245.633 74.8 238.993 75.12C238.353 75.12 237.753 75.16 237.193 75.24V77.4ZM234.073 30.72C229.993 30.72 226.793 31.68 224.473 33.6C222.233 35.44 221.113 38 221.113 41.28C221.113 44.48 222.193 47.08 224.353 49.08C226.513 51.08 229.193 52.2 232.393 52.44C234.313 52.44 236.113 52.44 237.793 52.44C239.553 52.36 241.233 52.24 242.833 52.08C244.593 51.84 246.393 51.52 248.233 51.12C248.313 50.64 248.353 50.12 248.353 49.56C248.353 49 248.353 48.4 248.353 47.76C248.353 42.96 247.153 39.24 244.753 36.6C242.353 33.88 238.793 30.8 234.073 30.72ZM327.858 77.4C318.018 77.4 310.138 75.08 304.218 70.44C298.378 65.72 295.458 59.04 295.458 50.4C295.458 46.32 296.218 42.52 297.738 39C299.258 35.48 301.458 32.44 304.338 29.88C307.218 27.32 310.698 25.36 314.778 24C318.858 22.56 323.418 21.84 328.458 21.84C333.978 21.84 338.698 22.56 342.618 24C346.618 25.36 349.858 27.24 352.338 29.64C354.818 31.96 356.618 34.6 357.738 37.56C358.938 40.52 359.538 43.56 359.538 46.68C359.538 47.8 359.498 48.84 359.418 49.8C359.338 50.68 359.258 51.48 359.178 52.2H324.978C325.218 55.16 326.578 57.44 329.058 59.04C331.538 60.64 334.578 61.44 338.178 61.44C343.218 61.44 347.938 60.16 352.338 57.6L357.858 70.44C352.258 75.08 344.578 77.4 334.818 77.4H327.858ZM328.578 37.56C325.858 37.56 323.698 38.28 322.098 39.72C320.498 41.08 319.538 43.04 319.218 45.6H337.458C337.458 43.12 336.698 41.16 335.178 39.72C333.658 38.28 331.458 37.56 328.578 37.56ZM427.062 75C424.422 75 421.862 75 419.382 75C416.982 74.92 414.662 74.8 412.422 74.64C410.182 74.48 408.062 74.28 406.062 74.04C404.062 73.8 402.222 73.52 400.542 73.2C399.102 69.44 398.262 65.64 398.022 61.8C397.782 57.96 397.662 54.12 397.662 50.28V48.72C397.662 45.28 397.782 41.88 398.022 38.52C398.342 35.16 399.182 31.88 400.542 28.68C404.462 27.8 408.582 27.24 412.902 27C417.222 26.76 421.582 26.64 425.982 26.64H427.062C429.062 26.64 431.062 26.76 433.062 27C435.142 27.16 437.182 27.44 439.182 27.84C439.102 27.36 439.062 26.84 439.062 26.28C439.062 25.72 439.062 25.2 439.062 24.72C439.062 19.52 440.702 15.56 443.982 12.84C447.262 10.04 451.862 8.64001 457.782 8.64001H462.822C464.902 8.64001 467.022 8.84001 469.182 9.24001C471.342 9.56001 473.462 10.08 475.542 10.8C477.702 11.52 479.782 12.4 481.782 13.44C483.862 14.48 485.782 15.68 487.542 17.04C489.382 18.4 490.982 19.88 492.342 21.48L483.342 34.2C480.862 32.68 478.262 31.36 475.542 30.24C472.822 29.12 470.182 28.56 467.622 28.56C464.822 28.56 462.862 29.2 461.742 30.48C460.702 31.68 460.182 33.44 460.182 35.76C460.182 37.12 460.262 38.44 460.422 39.72C460.662 40.92 460.862 42.08 461.022 43.2C463.742 42.88 466.502 42.68 469.302 42.6C472.102 42.44 474.902 42.36 477.702 42.36C480.422 42.36 483.022 42.44 485.502 42.6C488.062 42.76 490.582 43 493.062 43.32C495.622 43.64 498.262 44.04 500.982 44.52C502.182 48.52 502.902 52.6 503.142 56.76C503.462 60.84 503.622 64.96 503.622 69.12V75H461.622C461.302 73.16 460.982 71.44 460.662 69.84C460.342 68.24 459.982 66.6 459.582 64.92C457.662 65.56 455.782 66.24 453.942 66.96C452.102 67.6 450.182 68.16 448.182 68.64C446.262 69.12 444.342 69.52 442.422 69.84C440.502 70.08 438.622 70.2 436.782 70.2C431.822 70.2 427.782 69.24 424.662 67.32C421.622 65.4 420.102 62.32 420.102 58.08C420.102 57.12 420.222 56.2 420.462 55.32C420.702 54.44 420.982 53.6 421.302 52.8C419.862 52.88 418.382 53 416.862 53.16C415.422 53.24 413.942 53.32 412.422 53.4C412.422 57.24 412.582 61.04 412.902 64.8C413.302 68.48 414.582 72 416.742 75.36C418.982 78.72 422.302 81.48 426.702 83.64C431.182 85.72 437.062 86.76 444.342 86.76H447.462C454.902 86.76 461.462 85.68 467.142 83.52C472.902 81.28 477.422 78.4 480.702 74.88C484.062 71.28 486.342 67.4 487.542 63.24L506.022 67.32C505.862 67.56 505.742 67.84 505.662 68.16C505.582 68.48 505.502 68.84 505.422 69.24C503.102 79.4 497.462 87 488.502 92.04C479.622 97.08 467.622 99.6 452.502 99.6H445.062C432.822 99.6 422.702 97.68 414.702 93.84C406.782 90 400.622 84.48 396.222 77.28C391.902 70.08 389.022 61.72 387.582 52.2C386.142 42.68 385.422 32.32 385.422 21.12V4.19999H410.382V20.64C410.382 23.12 410.462 25.96 410.622 29.16C410.782 32.36 411.022 35.76 411.342 39.36C412.942 39.28 414.542 39.2 416.142 39.12C417.742 39.04 419.342 39 420.942 39C420.462 37.64 420.062 36.2 419.742 34.68C419.502 33.08 419.382 31.36 419.382 29.52C419.382 22.68 421.462 17.52 425.622 14.04C429.782 10.56 435.302 8.8 442.182 8.76L449.142 8.64001C449.062 10.08 449.022 11.52 449.022 12.96C449.022 14.4 449.022 15.88 449.022 17.4V19.2C447.942 19.2 446.822 19.16 445.662 19.08C444.582 19 443.542 19.04 442.542 19.2C439.662 19.2 437.542 19.92 436.182 21.36C434.822 22.72 434.142 24.56 434.142 26.88C434.142 27.52 434.142 28.24 434.142 29.04C434.142 29.84 434.262 30.68 434.502 31.56C435.822 31.16 437.142 30.92 438.462 30.84C439.862 30.68 441.262 30.6 442.662 30.6H446.022C448.022 30.6 449.862 30.64 451.542 30.72C453.302 30.8 455.022 30.92 456.702 31.08C456.622 32.04 456.542 32.96 456.462 33.84C456.382 34.72 456.342 35.6 456.342 36.48C456.342 38.16 456.462 39.84 456.702 41.52C456.942 43.12 457.182 44.72 457.422 46.32C455.902 46.4 454.382 46.44 452.862 46.44C451.422 46.44 449.942 46.44 448.422 46.44H444.222C441.982 46.44 439.902 46.4 437.982 46.32C436.062 46.16 434.302 45.92 432.702 45.6C432.222 47.28 431.982 48.92 431.982 50.52C431.982 52.6 432.302 54.4 432.942 55.92C433.582 57.44 434.662 58.56 436.182 59.28C437.782 60 439.862 60.36 442.422 60.36C444.022 60.36 445.622 60.2 447.222 59.88C448.902 59.56 450.582 59.12 452.262 58.56C453.942 58 455.622 57.32 457.302 56.52C459.062 55.64 460.822 54.68 462.582 53.64L470.862 65.88C468.622 67.48 466.222 68.92 463.662 70.2C461.182 71.48 458.542 72.6 455.742 73.56C452.942 74.52 449.982 75.24 446.862 75.72C443.822 76.2 440.582 76.44 437.142 76.44C435.862 76.44 434.582 76.4 433.302 76.32C432.102 76.16 430.942 75.96 429.822 75.72C429.022 75.6 428.182 75.48 427.302 75.36C426.422 75.24 425.502 75.12 424.542 75H427.062ZM545.655 77.4C537.495 77.4 530.655 75.52 525.135 71.76C519.695 68 515.975 62.68 513.975 55.8C512.775 51.72 511.935 47.72 511.455 43.8C510.975 39.88 510.735 35.88 510.735 31.8C510.735 27.64 510.975 23.56 511.455 19.56C512.015 15.56 512.855 11.56 513.975 7.55999H537.855C537.535 9.07999 537.295 10.52 537.135 11.88C536.975 13.16 536.855 14.48 536.775 15.84C536.695 17.12 536.655 18.56 536.655 20.16C536.655 21.68 536.655 23.48 536.655 25.56C536.655 29.32 537.295 32.68 538.575 35.64C539.935 38.52 542.015 40.8 544.815 42.48C547.695 44.16 551.415 45 555.975 45H558.255V77.4H545.655ZM558.255 77.4C556.095 77.4 553.975 77.32 551.895 77.16C549.895 76.92 547.855 76.6 545.775 76.2C543.775 75.72 541.695 75.08 539.535 74.28C535.135 78.12 530.495 80.76 525.615 82.2C520.735 83.64 515.055 84.36 508.575 84.36H505.455C497.535 84.36 490.495 83.48 484.335 81.72C478.175 79.96 472.975 77.44 468.735 74.16C464.495 70.8 461.295 66.8 459.135 62.16C456.975 57.44 455.895 52.16 455.895 46.32C455.895 42.88 456.255 39.36 456.975 35.76C457.695 32.08 458.935 28.52 460.695 25.08C462.455 21.64 464.815 18.52 467.775 15.72C470.735 12.84 474.455 10.52 478.935 8.76C483.415 6.92 488.815 6 495.135 6H502.215C511.815 6 519.455 8.12 525.135 12.36C530.895 16.6 534.855 22.24 537.015 29.28C537.575 31.04 538.015 32.8 538.335 34.56C538.735 36.32 539.055 38.16 539.295 40.08C541.855 37.76 544.215 35.2 546.375 32.4C548.615 29.52 550.615 26.64 552.375 23.76C554.215 20.88 555.775 18.16 557.055 15.6C558.335 12.96 559.335 10.72 560.055 8.88L583.095 10.32C582.055 13.76 580.735 17.52 579.135 21.6C577.535 25.68 575.695 29.84 573.615 34.08C571.615 38.24 569.455 42.36 567.135 46.44C564.815 50.44 562.415 54.16 559.935 57.6C559.055 58.8 558.175 60.04 557.295 61.32C556.495 62.52 555.695 63.76 554.895 65.04C555.695 66.08 556.655 67.04 557.775 67.92C558.975 68.8 560.375 69.52 561.975 70.08C563.575 70.56 565.375 70.8 567.375 70.8H583.095V77.4H558.255ZM498.015 28.32C493.535 28.32 490.295 29.56 488.295 32.04C486.295 34.52 485.295 37.8 485.295 41.88C485.295 44.52 485.655 47.16 486.375 49.8C487.175 52.44 488.375 54.84 489.975 57C491.575 59.08 493.615 60.76 496.095 62.04C498.575 63.24 501.495 63.84 504.855 63.84C508.935 63.84 512.295 63.08 514.935 61.56C517.575 59.96 519.535 57.76 520.815 54.96C522.175 52.16 522.855 48.88 522.855 45.12C522.855 41.12 521.575 37.88 519.015 35.4C516.535 32.84 512.815 31.12 507.855 30.24C504.735 29.52 501.455 28.88 498.015 28.32ZM639.898 77.4C630.058 77.4 622.178 75.08 616.258 70.44C610.418 65.72 607.498 59.04 607.498 50.4C607.498 46.32 608.258 42.52 609.778 39C611.298 35.48 613.498 32.44 616.378 29.88C619.258 27.32 622.738 25.36 626.818 24C630.898 22.56 635.458 21.84 640.498 21.84C646.018 21.84 650.738 22.56 654.658 24C658.658 25.36 661.898 27.24 664.378 29.64C666.858 31.96 668.658 34.6 669.778 37.56C670.978 40.52 671.578 43.56 671.578 46.68C671.578 47.8 671.538 48.84 671.458 49.8C671.378 50.68 671.298 51.48 671.218 52.2H637.018C637.258 55.16 638.618 57.44 641.098 59.04C643.578 60.64 646.618 61.44 650.218 61.44C655.258 61.44 659.978 60.16 664.378 57.6L669.898 70.44C664.298 75.08 656.618 77.4 646.858 77.4H639.898ZM640.618 37.56C637.898 37.56 635.738 38.28 634.138 39.72C632.538 41.08 631.578 43.04 631.258 45.6H649.498C649.498 43.12 648.738 41.16 647.218 39.72C645.698 38.28 643.498 37.56 640.618 37.56ZM688.622 75V23.64H712.502V29.28C715.382 27.12 718.342 25.48 721.382 24.36C724.502 23.24 727.622 22.68 730.742 22.68H741.542V46.56H727.222C723.862 46.56 721.422 47.28 719.902 48.72C718.382 50.08 717.622 52.28 717.622 55.32V75H688.622Z" fill="white"/>
<path d="M46.8232 0.379883C70.9112 0.379959 91.3539 13.594 93.1953 39.6943C93.8715 49.2802 97.3443 89.9335 80.8887 90.332C76.0914 90.4489 74.3935 84.5886 70.4893 84.5596C66.5423 84.5306 64.465 90.3296 59.5898 90.332C54.9712 90.3343 52.8621 84.5631 49.041 84.5596C44.8386 84.5561 43.3466 90.29 38.2227 90.332C32.0896 90.3819 28.2874 84.0962 27.0527 78.918C5.10717 76.9895 0 56.5647 0 38.1045C0.000207654 11.9141 24.0674 0.379883 46.8232 0.379883ZM51.7227 33.9785C49.0142 33.9785 46.8184 36.1743 46.8184 38.8828V47.4629C46.8186 50.1712 49.0143 52.3662 51.7227 52.3662C54.431 52.3661 56.6267 50.1712 56.627 47.4629V38.8828C56.6269 36.1744 54.4311 33.9786 51.7227 33.9785ZM72.292 33.9785C69.5835 33.9788 67.3887 36.1745 67.3887 38.8828V47.4629C67.3889 50.1711 69.5837 52.366 72.292 52.3662C75.0005 52.3662 77.196 50.1712 77.1963 47.4629V38.8828C77.1962 36.1743 75.0006 33.9785 72.292 33.9785Z" fill="white"/>
</svg>
