<svg width="1157" height="232" viewBox="0 0 1157 232" fill="none" xmlns="http://www.w3.org/2000/svg">
<path d="M439.876 54.644C447.204 54.6443 453.978 56.0812 460.191 58.9487C466.561 61.8163 471.978 65.957 476.438 71.3719C480.897 76.7879 484.405 83.4009 486.954 91.2056C489.502 99.0107 490.777 107.857 490.777 117.732C490.777 126.652 489.665 134.865 487.435 142.352C485.364 149.678 482.249 156.053 478.108 161.468C473.967 166.882 468.867 171.101 462.816 174.127C456.921 176.995 450.147 178.432 442.5 178.432C428.005 178.431 416.371 172.298 407.61 160.033V231.004H377.024V57.7498H406.892L407.138 72.0894C414.307 60.4601 425.219 54.644 439.876 54.644ZM656.904 52.4445H695.354V59.1092C688.081 65.5272 684.983 70.1093 681.024 79.7358H656.904V128.013C656.905 135.498 658.265 141.317 660.973 145.458C663.841 149.438 668.461 151.433 674.831 151.433C678.443 162.426 679.303 165.005 687.792 175.723C681.215 178.883 674.403 178.436 674.349 178.432C665.748 178.432 658.416 177.157 652.363 174.609C646.312 172.061 641.288 168.638 637.306 164.338C633.484 160.038 630.695 155.014 628.942 149.281C627.191 143.548 626.319 137.489 626.318 131.118V25.9744H656.904V52.4445ZM200.466 54.644C218.627 54.6441 232.327 60.4597 241.568 72.0894C250.966 83.7191 255.671 101.245 255.671 124.661H174.656C175.135 133.58 177.684 140.674 182.303 145.93C187.082 151.186 193.301 153.822 200.947 153.822C206.042 153.821 210.502 152.699 214.324 150.471C218.305 148.082 220.854 144.812 221.97 140.672H254C250.336 152.778 243.955 162.102 234.875 168.633C225.794 175.164 214.957 178.432 202.372 178.432C163.186 178.431 143.591 157.081 143.589 114.39C143.589 105.311 144.864 97.0982 147.412 89.7707C149.961 82.4443 153.632 76.1468 158.41 70.8905C163.347 65.6361 169.321 61.6564 176.327 58.9487C183.337 56.081 191.384 54.644 200.466 54.644ZM315.861 54.644C334.023 54.6441 347.723 60.4597 356.964 72.0894C366.361 83.7191 371.067 101.245 371.067 124.661H290.052C290.531 133.58 293.08 140.674 297.699 145.93C302.478 151.186 308.697 153.822 316.343 153.822C321.438 153.821 325.897 152.699 329.719 150.471C333.701 148.082 336.25 144.812 337.366 140.672H369.538C365.874 152.778 359.493 162.102 350.412 168.633C341.332 175.164 330.495 178.432 317.909 178.432C278.723 178.431 259.128 157.081 259.126 114.39C259.126 105.311 260.401 97.0982 262.949 89.7707C265.498 82.4443 269.169 76.1468 273.947 70.8905C278.884 65.6361 284.858 61.6564 291.864 58.9487C298.874 56.081 306.921 54.644 316.003 54.644ZM579.872 52.4445H618.322V59.1092C611.049 65.5272 607.951 70.1093 603.992 79.7358H579.872V128.013C579.873 135.498 581.233 141.317 583.941 145.458C586.809 149.438 591.429 151.433 597.799 151.433C601.411 162.426 602.271 165.005 610.76 175.723C604.183 178.883 597.371 178.436 597.317 178.432C588.716 178.432 581.384 177.157 575.331 174.609C569.28 172.061 564.256 168.638 560.274 164.338C556.452 160.038 553.663 155.014 551.91 149.281C550.159 143.548 549.287 137.489 549.286 131.118V25.9744H579.872V52.4445ZM830.859 54.644C848.186 54.644 863.085 60.096 875.565 71C888.044 81.9039 894.278 96.6956 894.278 115.366C894.278 134.036 888.044 148.827 875.565 159.732C863.085 170.636 848.186 176.088 830.859 176.088C813.532 176.088 798.633 170.636 786.154 159.732C773.675 148.827 767.441 134.036 767.441 115.366C767.441 96.6956 773.675 81.9039 786.154 71C798.633 60.096 813.532 54.644 830.859 54.644ZM1007.28 54.644C1026.35 54.6443 1041.7 61.7688 1053.27 75.9197V57.7498H1082.86V170.914C1082.86 188.664 1077.24 202.835 1065.99 213.427C1054.88 224.02 1040.17 229.317 1021.88 229.317C1006.47 229.317 993.309 225.817 982.389 218.821C971.613 211.824 965.287 202.31 963.413 190.278H993.246C994.736 195.012 998.476 198.908 1004.46 202.003C1010.45 204.928 1017.44 206.39 1025.45 206.39C1040.25 206.39 1051.73 201.414 1059.89 191.462C1068.2 181.51 1072.36 168.11 1072.36 151.261V135.098C1060.95 148.958 1045.93 155.888 1027.3 155.888C1009.82 155.888 995.285 150.042 983.717 138.349C972.148 126.657 966.368 111.301 966.368 92.2809C966.368 73.2605 972.148 57.9051 983.717 46.2134C995.285 34.5218 1009.82 28.676 1027.3 28.676C1045.93 28.676 1060.95 35.6061 1072.36 49.4658V54.644H1007.28ZM730.485 54.644C748.646 54.6441 762.347 60.4597 771.588 72.0894C780.985 83.7191 785.691 101.245 785.691 124.661H704.676C705.154 133.58 707.703 140.674 712.322 145.93C717.101 151.186 723.32 153.822 730.966 153.822C736.061 153.821 740.521 152.699 744.343 150.471C748.325 148.082 750.873 144.812 751.989 140.672H784.161C780.498 152.778 774.116 162.102 765.036 168.633C755.955 175.164 745.118 178.432 732.533 178.432C693.346 178.431 673.752 157.081 673.75 114.39C673.75 105.311 674.025 97.0982 676.573 89.7707C679.121 82.4443 682.792 76.1468 687.571 70.8905C692.508 65.6361 698.482 61.6564 705.487 58.9487C712.497 56.081 720.544 54.644 729.626 54.644H730.485ZM443.119 75.7196C436.161 75.7196 430.495 78.3825 426.12 83.7087C421.906 88.8637 419.657 95.5949 419.357 104.903H467.234C466.934 95.5949 464.685 88.8637 460.471 83.7087C456.096 78.3825 450.43 75.7196 443.119 75.7196ZM558.62 75.7196C551.662 75.7196 545.996 78.3825 541.621 83.7087C537.407 88.8637 535.158 95.5949 534.858 104.903H582.735C582.435 95.5949 580.186 88.8637 575.972 83.7087C571.597 78.3825 565.931 75.7196 558.62 75.7196ZM737.604 75.7196C730.646 75.7196 724.98 78.3825 720.605 83.7087C716.391 88.8637 714.142 95.5949 713.842 104.903H761.719C761.419 95.5949 759.17 88.8637 754.956 83.7087C750.581 78.3825 744.915 75.7196 737.604 75.7196ZM320.103 75.7196C313.145 75.7196 307.479 78.3825 303.104 83.7087C298.89 88.8637 296.641 95.5949 296.341 104.903H344.218C343.918 95.5949 341.669 88.8637 337.455 83.7087C333.08 78.3825 327.414 75.7196 320.103 75.7196ZM830.859 76.3992C819.046 76.3992 810.093 81.5541 804.002 91.8639C798.076 102.173 795.113 115.158 795.113 130.818C795.113 146.477 798.076 159.462 804.002 169.772C810.093 180.081 819.046 185.236 830.859 185.236C842.672 185.236 851.625 180.081 857.716 169.772C863.642 159.462 866.605 146.477 866.605 130.818C866.605 115.158 863.642 102.173 857.716 91.8639C851.625 81.5541 842.672 76.3992 830.859 76.3992ZM1027.3 77.6786C1014.31 77.6786 1004.4 82.9351 997.578 93.4477C990.911 103.96 987.576 117.846 987.576 135.098C987.576 152.35 990.911 166.236 997.578 176.748C1004.4 187.261 1014.31 192.517 1027.3 192.517C1040.29 192.517 1050.2 187.261 1056.97 176.748C1063.74 166.236 1067.08 152.35 1067.08 135.098C1067.08 117.846 1063.74 103.96 1056.97 93.4477C1050.2 82.9351 1040.29 77.6786 1027.3 77.6786Z" fill="white"/>
</svg>
