<svg width="1148" height="222" viewBox="0 0 1148 222" fill="none" xmlns="http://www.w3.org/2000/svg">
<path d="M434.755 45.1426C442.083 45.1428 448.857 46.5798 455.07 49.4473C461.44 52.3148 466.857 56.4556 471.316 61.8705C475.776 67.2864 479.284 73.8995 481.832 81.7041C484.38 89.5093 485.656 98.3555 485.656 108.231C485.655 117.151 484.544 125.364 482.314 132.851C480.243 140.176 477.128 146.552 472.987 151.967C468.846 157.381 463.746 161.6 457.694 164.626C451.8 167.493 445.025 168.931 437.379 168.931C422.884 168.93 411.25 162.796 402.488 150.532V221.503H371.902V48.2484H401.771L402.016 62.5879C409.186 50.9586 420.098 45.1426 434.755 45.1426ZM651.783 42.943H690.232V49.6078C682.96 56.0257 679.862 60.6078 675.902 70.2344H651.783V118.511C651.783 125.997 653.144 131.815 655.851 135.956C658.719 139.936 663.339 141.932 669.709 141.932C673.321 152.925 674.182 155.503 682.671 166.221C676.094 169.381 669.281 168.934 669.228 168.931C660.627 168.93 653.295 167.656 647.242 165.107C641.191 162.559 636.167 159.136 632.185 154.837C628.363 150.536 625.573 145.513 623.821 139.78C622.069 134.046 621.197 127.987 621.197 121.617V16.473H651.783V42.943ZM195.344 45.1426C213.506 45.1427 227.206 50.9582 236.446 62.5879C245.844 74.2176 250.549 91.7435 250.55 115.16H169.535C170.013 124.078 172.563 131.172 177.181 136.428C181.961 141.684 188.18 144.32 195.826 144.32C200.921 144.32 205.38 143.198 209.202 140.969C213.184 138.58 215.733 135.31 216.849 131.17H248.879C245.214 143.276 238.833 152.601 229.753 159.132C220.673 165.662 209.836 168.931 197.251 168.931C158.064 168.929 138.47 147.58 138.467 104.889C138.467 95.8097 139.743 87.5967 142.291 80.2692C144.839 72.9428 148.511 66.6454 153.288 61.389C158.226 56.1346 164.199 52.1549 171.206 49.4473C178.216 46.5796 186.263 45.1426 195.344 45.1426ZM310.74 45.1426C328.902 45.1427 342.602 50.9582 351.842 62.5879C361.24 74.2176 365.945 91.7435 365.946 115.16H284.931C285.409 124.078 287.959 131.172 292.577 136.428C297.356 141.684 303.575 144.32 311.221 144.32C316.317 144.32 320.776 143.198 324.598 140.969C328.58 138.58 331.129 135.31 332.245 131.17H364.275C360.61 143.276 354.229 152.601 345.149 159.132C336.069 165.662 325.231 168.931 312.647 168.931C273.46 168.929 253.866 147.58 253.863 104.889C253.863 95.8097 255.138 87.5967 257.687 80.2692C260.235 72.9428 263.906 66.6454 268.684 61.389C273.621 56.1346 279.595 52.1549 286.602 49.4473C293.612 46.5796 301.659 45.1426 310.74 45.1426ZM734.544 45.1426C743.784 45.1426 751.592 46.1773 757.965 48.2484C764.495 50.3191 769.671 53.3483 773.494 57.3298C777.475 61.1527 780.351 66.0125 782.103 71.9053C783.855 77.6394 784.728 84.1766 784.728 91.5029V165.825H755.813C754.857 162.799 754.224 159.289 753.906 155.309C750.242 159.45 745.373 162.795 739.321 165.343C733.268 167.732 726.261 168.93 718.298 168.931C704.757 168.931 694.792 165.979 688.42 160.085C682.211 154.034 679.104 146.227 679.102 136.674C679.102 128.232 680.455 121.533 683.162 116.595C685.87 111.497 689.617 107.511 694.395 104.644C699.174 101.776 704.837 99.7065 711.369 98.432C718.058 96.9987 725.305 95.7236 733.109 94.6087C740.912 93.4941 746.174 92.0648 748.884 90.3135C751.59 88.4031 752.941 85.3698 752.943 81.2321C752.943 77.4092 751.112 74.4578 747.449 72.3867C743.944 70.1563 739.163 69.0355 733.109 69.0355C725.941 69.0357 720.766 70.6358 717.58 73.8216C714.555 77.0068 712.637 81.2267 711.841 86.4808H682.926C683.085 80.4302 684.044 74.8487 685.795 69.7529C687.707 64.6584 690.652 60.2748 694.631 56.6123C698.773 52.9483 704.12 50.1602 710.651 48.2484C717.182 46.1781 725.146 45.1426 734.544 45.1426ZM824.234 42.943H862.684V70.2344H824.234V118.511C824.235 125.997 825.595 131.815 828.303 135.956C831.171 139.936 835.791 141.932 842.161 141.932C854.49 141.932 859.816 138.107 862.684 134.125V161.53C856.427 167.079 851.751 168.575 841.68 168.931C833.079 168.93 825.747 167.656 819.694 165.107C813.643 162.559 808.618 159.136 804.637 154.837C800.815 150.536 798.025 145.513 796.273 139.78C794.521 134.046 793.649 127.987 793.649 121.617V16.473H824.234V42.943ZM974.946 45.1426C984.183 45.1429 992.465 46.6575 999.792 49.6833C1007.12 52.5506 1013.34 56.6909 1018.44 62.1065C1023.69 67.3635 1027.68 73.822 1030.39 81.4681C1033.25 89.1138 1034.68 97.6441 1034.68 107.041C1034.68 116.436 1033.25 124.961 1030.39 132.605C1027.68 140.091 1023.69 146.551 1018.44 151.967C1013.34 157.382 1007.04 161.6 999.556 164.626C992.229 167.493 984.025 168.93 974.946 168.931C965.387 168.931 956.86 167.417 949.373 164.39C941.886 161.363 935.513 157.137 930.256 151.721C925.16 146.306 921.249 139.777 918.541 132.133C915.834 124.488 914.483 116.119 914.482 107.041C914.482 97.8026 915.834 89.3502 918.541 81.7041C921.408 74.0583 925.472 67.5226 930.728 62.1065C935.985 56.6907 942.282 52.5509 949.609 49.6833C957.096 46.6563 965.546 45.1426 974.946 45.1426ZM548.187 16.0576C569.47 16.0579 584.474 20.1604 593.783 27.7917L593.802 27.8106C602.658 34.9311 607.93 45.2786 609.387 59.2083H577.215C575.91 52.7459 573.16 47.7066 568.596 44.6328C563.626 41.0847 556.241 39.5733 546.979 39.5729C539.336 39.573 533.07 40.59 528.457 42.8958C526.08 43.9855 524.129 45.5431 522.784 47.6253C521.419 49.7383 520.801 52.2002 520.801 54.8659C520.804 60.3899 523.437 64.7113 528.268 67.61L528.259 67.6195L528.363 67.6667C532.685 70.0433 538.977 72.3252 547.092 74.558C555.566 76.9792 563.641 79.2126 571.315 81.2321L571.391 81.2415C578.914 83.0236 585.509 84.9933 591.187 87.1416C598.656 90.2062 604.255 94.3559 608.113 99.4987L608.141 99.5365C611.843 104.297 613.881 111.15 613.881 120.427C613.88 135.147 608.666 146.352 598.371 154.402L598.342 154.421C588.19 162.502 572.835 166.769 551.812 166.769C529.214 166.769 512.326 162.011 500.741 152.901C496.235 149.297 492.61 145.307 489.838 140.931C490.489 139.158 491.095 137.346 491.622 135.484L491.612 135.475C492.994 130.809 493.967 125.942 494.577 120.899H517.931C518.617 127.488 521.704 132.837 527.183 136.693C533.284 140.985 541.498 142.96 551.5 142.961C558.845 142.961 565.399 141.81 571.07 139.411L571.155 139.374C574.169 137.982 576.602 136.041 578.263 133.483C579.927 130.921 580.699 127.928 580.699 124.647C580.697 121.571 579.98 118.759 578.414 116.349C576.85 113.943 574.564 112.136 571.749 110.846C566.91 108.536 561.186 106.567 554.625 104.927L554.606 104.917C542.15 101.904 532.143 99.1975 524.577 96.8083C517.11 94.4498 510.914 91.632 505.952 88.3877L505.914 88.3594L503.488 86.7451C498.097 82.9543 494.384 78.8362 492.179 74.4447C489.762 69.2241 488.544 63.512 488.544 57.2731C488.545 51.3799 489.586 45.9144 491.65 40.8473C493.654 35.9282 496.945 31.698 501.6 28.1598L501.657 28.1126C506.314 24.3878 512.376 21.4134 519.942 19.2767L519.952 19.2861C527.689 17.1587 537.085 16.0576 548.187 16.0576ZM61.4173 7.14616C72.0911 7.14622 81.9691 8.97627 91.0498 12.6403C100.13 16.1453 107.862 21.2423 114.235 27.9333C120.765 34.6241 125.864 42.7593 129.528 52.3171C133.189 61.873 135.021 72.707 135.022 84.8099C135.021 96.9161 133.345 107.994 130 118.03C126.813 127.905 122.195 136.435 116.142 143.603C110.088 150.611 102.834 156.113 94.3916 160.095C85.9507 163.916 76.6315 165.824 66.4395 165.825H0V7.14616H61.4173ZM907.694 165.825H876.627V43.0186H907.694V165.825ZM1108.78 45.1426C1114.35 45.1426 1119.54 46.0144 1124.32 47.7669C1129.09 49.3601 1133.16 51.8326 1136.5 55.1774C1140.01 58.5226 1142.71 62.6726 1144.62 67.61C1146.69 72.3883 1147.73 77.9678 1147.73 84.3379V165.825H1116.42V94.6087C1116.42 85.531 1114.91 79.3968 1111.88 76.21C1108.86 73.0245 1103.68 71.4336 1096.35 71.4333C1080.26 71.4333 1072.22 80.4306 1072.22 98.432V165.825H1041.15V48.2484H1070.78V65.4577C1074.45 58.7679 1079.31 53.7464 1085.36 50.4007C1091.41 46.8959 1099.22 45.1427 1108.78 45.1426ZM753.66 108.231C752.067 109.823 749.756 111.099 746.731 112.054C743.705 113.01 739.324 114.045 733.591 115.16C724.672 116.912 718.538 119.146 715.192 121.853C711.848 124.561 710.17 128.471 710.17 133.568C710.173 142.324 715.193 146.709 725.227 146.709C729.208 146.708 732.871 146.066 736.215 144.792C739.719 143.359 742.671 141.528 745.06 139.298C747.608 136.91 749.602 134.195 751.036 131.17C752.627 127.986 753.424 124.637 753.424 121.135L753.66 108.231ZM974.946 71.4333C955.987 71.4333 946.503 83.3031 946.503 107.041C946.505 130.933 955.989 142.885 974.946 142.885C993.9 142.884 1003.38 130.932 1003.38 107.041C1003.38 83.3044 993.902 71.4345 974.946 71.4333ZM427.58 70.4704C420.094 70.4714 413.807 73.5851 408.709 79.7972C403.772 86.0102 401.299 94.1361 401.299 104.172C401.3 129.658 409.981 142.404 427.344 142.404C445.186 142.404 454.106 130.292 454.107 106.078C454.106 95.5688 451.64 87.0451 446.706 80.5147C441.767 73.8233 435.387 70.4704 427.58 70.4704ZM32.2663 138.826H59.7464C74.2402 138.826 84.7539 134.358 91.2858 125.44C97.8172 116.36 101.084 102.81 101.085 84.8099C101.084 75.8917 100.289 68.2414 98.6963 61.8705C97.1039 55.5015 94.4751 50.3234 90.8138 46.3415C87.3096 42.2001 82.7662 39.2487 77.1917 37.4961C71.6157 35.5843 64.8423 34.6263 56.8766 34.6263H32.2663V138.826ZM194.391 69.7529C188.177 69.7529 182.755 72.0712 178.135 76.6914C173.678 81.1512 171.126 87.4425 170.488 95.5622H218.529C218.369 91.2648 217.563 87.5221 216.131 84.3379C214.857 80.9934 213.102 78.2808 210.873 76.21C208.643 73.9808 206.093 72.389 203.227 71.4333C200.36 70.3189 197.416 69.7533 194.391 69.7529ZM309.786 69.7529C303.573 69.7529 298.151 72.0712 293.531 76.6914C289.074 81.1512 286.522 87.4425 285.884 95.5622H333.925C333.765 91.2648 332.959 87.5221 331.527 84.3379C330.253 80.9934 328.498 78.2808 326.269 76.21C324.039 73.9808 321.489 72.389 318.622 71.4333C315.756 70.3189 312.812 69.7533 309.786 69.7529ZM907.694 28.915H876.627V0H907.694V28.915Z" fill="white"/>
</svg>
