<svg width="153" height="47" viewBox="0 0 153 47" fill="none" xmlns="http://www.w3.org/2000/svg">
<mask id="mask0_17_109" style="mask-type:luminance" maskUnits="userSpaceOnUse" x="0" y="0" width="152" height="47">
<path d="M151.703 0H0V47H151.703V0Z" fill="white"/>
</mask>
<g mask="url(#mask0_17_109)">
<path d="M151.707 46.0699H142.87V2.66333H151.707V46.0699Z" fill="white"/>
<path d="M133.807 10.5387C130.8 10.5387 128.526 8.17888 128.526 5.26483C128.526 2.3508 130.8 -0.0090332 133.807 -0.0090332C136.815 -0.0090332 139.088 2.3508 139.088 5.26483C139.088 8.17888 136.753 10.5387 133.807 10.5387ZM138.23 46.0702H129.455V15.0706H138.23V46.0702Z" fill="white"/>
<path d="M106.485 46.8124C99.8597 46.8124 95.7466 43.219 95.7466 37.4534C95.7466 31.0087 101.151 29.3908 106.237 28.3359L109.616 27.6565C113.73 26.852 116.304 26.2888 116.304 23.2498C116.304 20.586 114.154 19.3435 111.457 19.3435C108.759 19.3435 106.485 20.4609 106.299 23.5626H97.038C97.3476 17.0552 102.929 14.0786 111.58 14.0786C115.755 14.0786 118.701 14.8205 120.842 16.063C124.459 18.2977 125.017 21.8911 125.017 25.547V40.9217C125.017 42.9686 125.079 44.7029 125.203 46.0703H116.49V41.8513C114.774 44.4525 111.952 46.8124 106.485 46.8124ZM109.917 40.9842C113.783 40.9842 116.18 38.4456 116.18 34.5394V30.6332C115.446 31.1873 113.42 31.8131 111.58 32.3048L110.66 32.555C107.405 33.4221 105.141 34.0389 105.141 36.8367C105.141 39.3752 106.857 40.9933 109.926 40.9933L109.917 40.9842Z" fill="white"/>
<path d="M71.5778 29.9447V22.9993H93.5416V46.0613H85.6248V40.7247C83.2276 44.193 79.247 46.9908 72.9224 46.9908C60.777 46.9908 53.161 37.9984 53.161 24.2328C53.161 10.4671 61.7591 1.67139 74.3375 1.67139C84.3422 1.67139 91.3301 6.50726 93.0551 14.4449H83.2364C82.1926 10.6012 78.8222 8.24138 74.3995 8.24138C67.4644 8.24138 62.9885 14.0069 62.9885 24.3043C62.9885 34.6019 67.4644 40.4299 74.5234 40.4299C80.5384 40.4299 84.2802 36.461 84.7135 29.9536H71.5866L71.5778 29.9447Z" fill="white"/>
<path d="M29.9436 16.4921V32.3047L45.5916 16.4921V0.679443L29.9436 16.4921Z" fill="white"/>
<path d="M14.3012 32.3045C9.98455 27.9423 9.98455 20.8539 14.3012 16.4918C16.4684 14.3018 19.2991 13.2113 22.1297 13.2113V2.03784C16.4684 2.03784 10.7984 4.22782 6.48168 8.58995C-2.16056 17.3231 -2.16056 31.4822 6.48168 40.2242C15.1239 48.9573 29.1353 48.9573 37.7866 40.2242L29.9582 32.3133C25.6414 36.6755 18.6268 36.6755 14.3101 32.3133L14.3012 32.3045Z" fill="white"/>
</g>
</svg>
