<svg width="262" height="27" viewBox="0 0 262 27" fill="none" xmlns="http://www.w3.org/2000/svg">
<path d="M246.22 17.1717C246.648 19.6707 248.362 21.2415 251.289 21.2415C253.431 21.2415 254.859 20.3847 254.824 18.8139C254.788 17.1717 253.396 16.3149 249.861 15.4581C243.864 14.0658 240.437 11.781 240.437 7.6755C240.437 2.9631 244.435 0 250.504 0C256.287 0 260.214 3.4986 260.821 8.7822L254.609 9.0321C254.36 6.5688 252.753 5.0694 250.361 5.0694C248.183 5.0694 246.684 6.1404 246.827 7.7826C246.898 9.6033 249.076 10.2816 251.575 10.8528C257.573 12.0666 261.178 14.5656 261.178 18.6711C261.178 23.5263 256.93 26.3466 251.147 26.3466C244.756 26.3466 240.329 22.9194 239.972 17.493L246.22 17.1717Z" fill="white"/>
<path d="M224.394 26.4894C216.719 26.4894 211.899 21.3843 211.899 13.2804C211.899 5.1051 216.719 0 224.394 0C232.07 0 236.889 5.1051 236.889 13.2804C236.889 21.3843 232.07 26.4894 224.394 26.4894ZM218.325 13.2804C218.325 18.4569 220.503 21.3486 224.394 21.3486C228.285 21.3486 230.463 18.4569 230.463 13.2804C230.463 8.0682 228.285 5.1408 224.394 5.1408C220.503 5.1408 218.325 8.0682 218.325 13.2804Z" fill="white"/>
<path d="M202.093 0.571289H208.376V25.9183H202.093V0.571289Z" fill="white"/>
<path d="M185.953 0.571289C194.307 0.571289 198.984 5.14089 198.984 13.2805C198.984 21.3844 194.414 25.9183 186.168 25.9183H176.921V0.571289H185.953ZM183.205 20.7775H185.953C190.523 20.7775 192.665 18.3856 192.665 13.2448C192.665 8.10399 190.523 5.71209 185.953 5.71209H183.205V20.7775Z" fill="white"/>
<path d="M172.602 16.6361C172.602 22.6694 168.461 26.4893 161.821 26.4893C155.216 26.4893 151.075 22.6694 151.075 16.6361V0.5354H157.358V16.6361C157.358 19.7777 159.001 21.3485 161.821 21.3485C164.641 21.3485 166.319 19.7777 166.319 16.6361V0.5354H172.602V16.6361Z" fill="white"/>
<path d="M148.17 0.571289V5.71209H140.673V25.9183H134.39V5.71209H126.929V0.571289H148.17Z" fill="white"/>
<path d="M109.939 17.1717C110.368 19.6707 112.081 21.2415 115.009 21.2415C117.151 21.2415 118.579 20.3847 118.543 18.8139C118.507 17.1717 117.115 16.3149 113.581 15.4581C107.583 14.0658 104.156 11.781 104.156 7.6755C104.156 2.9631 108.154 0 114.223 0C120.007 0 123.934 3.4986 124.541 8.7822L118.329 9.0321C118.079 6.5688 116.472 5.0694 114.08 5.0694C111.903 5.0694 110.403 6.1404 110.546 7.7826C110.618 9.6033 112.795 10.2816 115.294 10.8528C121.292 12.0666 124.898 14.5656 124.898 18.6711C124.898 23.5263 120.649 26.3466 114.866 26.3466C108.476 26.3466 104.049 22.9194 103.692 17.493L109.939 17.1717Z" fill="white"/>
<path d="M74.1096 0.571289H92.3523V5.71209H80.3928V10.6744H91.9239V15.7438H80.3928V20.7775H92.6379V25.9183H74.1096V0.571289Z" fill="white"/>
<path d="M69.7905 16.6361C69.7905 22.6694 65.6493 26.4893 59.0091 26.4893C52.4046 26.4893 48.2634 22.6694 48.2634 16.6361V0.5354H54.5466V16.6361C54.5466 19.7777 56.1888 21.3485 59.0091 21.3485C61.8294 21.3485 63.5073 19.7777 63.5073 16.6361V0.5354H69.7905V16.6361Z" fill="white"/>
<path d="M27.6718 25.9183V0.571289H33.955V20.7775H45.2719V25.9183H27.6718Z" fill="white"/>
<path d="M23.7048 25.9182H20.0277L19.7421 22.4196C18.4926 24.9186 15.6366 26.4894 12.0666 26.4894C4.9266 26.4894 0 20.8488 0 13.2804C0 5.712 4.8909 0 12.495 0C18.3855 0 22.3482 3.3201 23.6691 8.7108L17.1717 9.0321C16.5648 6.6402 14.8869 5.1408 12.3522 5.1408C8.3538 5.1408 6.426 8.5323 6.426 13.2804C6.426 17.9928 8.3538 21.3486 12.3522 21.3486C15.2082 21.3486 16.8504 19.635 17.3502 16.9575H12.3165V12.5664H23.7048V25.9182Z" fill="white"/>
</svg>
