<svg width="546" height="167" viewBox="0 0 546 167" fill="none" xmlns="http://www.w3.org/2000/svg">
<path d="M61.8477 89.8882L84.2354 67.8237L96.7305 80.1372L74.3301 102.214L106.02 102.214L106.02 119.628L-7.80996e-08 119.628L-5.57789e-08 102.214L31.6982 102.214L9.28418 80.1235L21.7783 67.8101L44.1777 89.8853L44.1777 58.6772L61.8477 58.6772L61.8477 89.8882Z" fill="white"/>
<path d="M506.012 51.4005C513.565 51.4006 520.304 53.9928 526.227 59.1762C532.299 64.3596 537.113 71.3202 540.667 80.0579C544.221 88.7957 545.998 97.3108 545.998 108.27C545.998 119.229 544.198 129.066 540.644 137.952C537.238 146.837 532.498 153.872 526.426 159.055C520.354 164.091 513.542 166.609 505.989 166.609C498.436 166.609 491.622 164.091 485.55 159.055C479.626 153.872 474.887 146.837 471.333 137.952C467.778 129.066 466.025 119.229 466.025 108.27C466.025 97.3108 467.802 88.7957 471.356 80.0579C474.91 71.3202 479.724 64.3596 485.796 59.1762C491.868 53.9927 498.607 51.4005 506.012 51.4005ZM179.481 0.30542C181.11 0.305573 181.925 1.4903 181.925 3.85959V96.9402C181.925 98.4211 182.517 99.3836 183.702 99.828C185.035 100.124 186.293 99.6059 187.478 98.273L213.47 70.283C216.58 66.8767 217.839 64.0623 217.246 61.8408C216.802 59.4713 215.099 57.9906 212.137 57.3981L207.027 56.5096C205.102 56.0653 204.139 55.1018 204.139 53.6209C204.14 52.1403 205.176 51.3996 207.249 51.3995H263.239C265.46 51.3996 266.571 52.5103 266.571 54.7315V137.594C266.571 144.406 267.83 149.294 270.347 152.256C273.013 155.07 276.642 156.476 281.233 156.476C285.824 156.476 289.897 155.218 293.451 152.7C297.006 150.034 299.819 146.554 301.893 142.259C304.114 137.816 305.225 133.002 305.225 127.819V64.9507C305.225 62.2851 304.78 60.4341 303.892 59.3973C303.151 58.3606 301.745 57.7674 299.671 57.6193L295.895 57.175C293.377 56.8788 292.118 55.9164 292.118 54.2873C292.118 52.3621 293.525 51.3995 296.339 51.3995H316.999C319.22 51.3995 320.331 52.5102 320.331 54.7315V140.926C320.331 142.72 320.501 144.602 320.838 145.956C321.105 147.026 321.813 147.94 322.801 148.428C323.618 148.831 324.648 149.132 325.891 149.309L330.556 149.976C332.481 150.124 333.443 150.865 333.444 152.197C333.444 153.53 332.259 154.419 329.89 154.864C325.298 155.456 321.596 156.641 318.782 158.418C316.116 160.195 313.747 162.092 311.673 164.61C310.341 165.943 309.23 166.609 308.341 166.609C307.009 166.609 306.341 165.721 306.341 163.943L306.335 152.922C306.335 152.746 306.325 152.58 306.306 152.427C306.123 151.003 304.13 150.515 303.007 151.409C302.86 151.526 302.71 151.66 302.559 151.812C297.079 157.291 292.192 161.141 287.897 163.363C283.75 165.584 279.085 166.695 273.902 166.695C270.199 166.695 266.645 165.88 263.239 164.251C259.833 162.622 257.018 160.031 254.797 156.476C252.575 152.922 251.465 148.183 251.465 142.259V64.9507C251.465 62.2853 251.02 60.4341 250.132 59.3973C249.392 58.3606 247.984 57.7674 245.911 57.6193L242.134 57.175C241.692 57.1229 241.242 57.1184 240.81 57.2297C238.361 57.8612 235.912 59.0267 233.463 60.7302C230.057 62.9517 225.984 66.5064 221.245 71.3936L207.471 86.0555C204.362 89.4616 203.621 92.7937 205.25 96.0516L232.001 147.451C233.479 150.29 235.271 152.961 237.503 155.254C239.936 157.753 243.098 160.718 244.697 161.055L246.918 161.499C248.695 161.943 249.584 162.833 249.584 164.166C249.584 165.794 248.547 166.609 246.474 166.609H209.79C207.717 166.609 206.679 165.794 206.679 164.166C206.679 162.685 207.642 161.795 209.568 161.499L213.344 161.055C218.972 160.314 220.156 156.686 216.898 150.17L194.81 107.159C194.069 105.678 192.958 104.864 191.477 104.716C190.144 104.568 188.885 105.086 187.7 106.271L185.257 108.714C183.924 110.047 183.036 111.38 182.591 112.713C182.147 114.046 181.925 115.527 181.925 117.156L181.94 149.756C181.94 152.865 182.384 157.056 183.273 158.389C184.309 159.722 186.382 160.536 189.492 160.833L195.491 161.499C197.12 161.795 197.934 162.628 197.934 164.109C197.934 165.738 197.046 166.609 195.269 166.609H156.392C154.615 166.609 153.727 165.794 153.727 164.166C153.727 162.685 154.541 161.795 156.17 161.499L159.28 161.055C162.39 160.61 164.39 159.722 165.279 158.389C166.315 157.056 166.833 152.865 166.834 149.756L166.819 22.5199C166.819 20.8781 166.65 19.5733 166.313 18.6056C165.951 17.5656 165.206 16.6546 164.25 16.107C163.489 15.671 162.494 15.3651 161.264 15.1895L156.599 14.5231C154.971 14.2269 154.156 13.3382 154.156 11.8574C154.156 10.3765 154.971 9.48806 156.599 9.19181C160.746 8.30321 164.227 7.26575 167.041 6.08095C169.855 4.89621 172.224 3.7115 174.149 2.52678C176.519 1.04578 178.297 0.30542 179.481 0.30542ZM401.547 51.3985C400.012 48.6502 403.707 44.4343 407.698 45.7278C409.645 46.3589 410.513 48.4925 411.823 50.0648C412.711 50.9534 414.563 51.3985 417.377 51.3985H460.795C463.017 51.3985 464.128 52.361 464.128 54.2863C464.128 54.5567 464.082 54.8579 463.989 55.1901C463.735 56.1016 463.326 56.965 462.934 57.8263C462.659 58.4291 462.317 59.1001 461.906 59.8397L412.366 156.39C412.063 156.997 411.876 157.565 411.806 158.094C411.681 159.033 412.081 160.052 412.938 160.457C413.469 160.707 414.167 160.833 415.032 160.833H425.029C433.767 160.833 439.913 159.648 443.467 157.278C446.493 155.135 449.036 151.919 451.096 147.629C451.833 146.094 452.243 144.427 452.464 142.739L453.861 132.054C454.123 130.051 454.399 127.765 456.067 126.626C456.537 126.305 457.044 126.145 457.588 126.145C458.528 126.145 459.185 126.444 459.56 127.043C460.598 128.701 459.908 130.913 460.213 132.844C462.346 146.355 467.329 153.096 471.98 160.647C472.779 161.945 473.352 163.555 472.509 164.825C471.72 166.014 470.434 166.609 468.654 166.609H395.927C393.706 166.609 392.595 165.646 392.595 163.721C392.595 163.129 392.817 162.388 393.261 161.5C393.706 160.611 394.224 159.5 394.816 158.167L444.578 61.6168C445.319 60.432 445.393 59.3955 444.8 58.5069C444.356 57.6184 443.393 57.1741 441.913 57.1741H432.583C426.337 57.1741 420.932 58.4328 417.377 60.9504C413.971 63.4681 411.157 67.0968 408.935 71.836L404.048 80.0858C403.16 82.0109 402.048 82.9735 400.715 82.9735C400.037 82.9735 399.506 82.8355 399.122 82.5598C397.422 81.3393 399.045 78.7237 399.956 76.8391C406.397 63.5067 403.293 54.5249 401.547 51.3985ZM381.407 45.7278C386.294 45.7278 389.922 47.2087 392.292 50.1705C394.662 52.9844 395.846 56.1689 395.846 59.7233C395.846 62.5371 395.106 64.8324 393.625 66.6095C392.292 68.3867 390.145 69.2761 387.183 69.2761C384.813 69.2761 383.036 68.7569 381.851 67.7202C380.814 66.5355 379.926 65.2026 379.185 63.7218C378.593 62.2409 377.852 60.9821 376.964 59.9455C376.075 58.7607 374.594 58.1684 372.521 58.1684C369.855 58.1684 367.337 59.7972 364.967 63.0554C362.598 66.1655 360.599 70.3865 358.97 75.7181C357.489 81.0496 356.748 87.1216 356.748 93.9341V151.725C356.748 154.835 357.193 157.057 358.081 158.39C359.118 159.723 361.191 160.537 364.301 160.834L370.3 161.5C371.929 161.796 372.743 162.611 372.743 163.943C372.743 165.721 371.632 166.609 369.411 166.609H331.867C329.646 166.609 328.535 165.795 328.535 164.166C328.535 162.833 329.498 161.944 331.423 161.5L334.089 161.056C337.199 160.463 339.199 159.575 340.087 158.39C341.124 157.057 341.642 154.835 341.642 151.725V70.8311C341.642 69.189 341.474 67.8839 341.137 66.916C340.774 65.8758 340.03 64.9647 339.074 64.4171C338.313 63.9811 337.317 63.6753 336.088 63.4996L331.423 62.8332C329.498 62.6851 328.535 61.8707 328.535 60.3897C328.535 59.205 329.72 58.3906 332.09 57.9463C336.681 57.2058 340.161 56.0211 342.531 54.3921C345.048 52.763 347.64 50.763 350.306 48.3935C351.638 47.0606 352.75 46.3942 353.639 46.3942C354.971 46.3944 355.638 47.283 355.638 49.0599V61.0562C355.638 61.4413 355.699 61.7754 355.822 62.0583C356.237 63.0171 357.623 63.2726 358.414 62.5901C358.761 62.2907 359.095 61.8534 359.414 61.2783C365.486 50.9115 372.817 45.728 381.407 45.7278ZM506.012 56.9539C490.61 56.9539 482.908 73.1705 482.908 108.27C482.908 143.518 490.586 161.055 505.989 161.055C521.391 161.054 529.115 143.517 529.115 108.27C529.115 73.1707 521.414 56.9542 506.012 56.9539Z" fill="white"/>
</svg>
