<svg width="177" height="93" viewBox="0 0 177 93" fill="none" xmlns="http://www.w3.org/2000/svg">
<path d="M17.3496 72.0518H13.4736V83H12.3184V72.0518H8.44238V70.9297H17.3496V72.0518ZM23.9316 76.3193H30.2559V70.9297H31.4121V83H30.2559V77.4414H23.9316V83H22.7764V70.9297H23.9316V76.3193ZM45.4082 72.0518H39.1357V76.4043H45.2051V77.5088H39.1357V81.8779H45.5449V83H37.9795V70.9297H45.4082V72.0518ZM60.2627 81.8779H66.4512V83H59.1064V70.9297H60.2627V81.8779ZM81.6465 83H80.3877L79.0957 79.3789H73.8604L72.585 83H71.3271L75.7305 70.9297H77.2432L81.6465 83ZM92.8193 70.9297C95.6412 70.9297 97.036 72.0178 97.0361 74.2275C97.0361 75.6045 96.2024 76.5741 94.8594 76.8291C96.5254 77.0331 97.5459 78.0874 97.5459 79.6514C97.5457 81.827 96.1346 82.9999 93.5 83H86.8252V70.9297H92.8193ZM115.748 77.7422L120.125 70.9297H121.791V83H120.635V73.0547L116.496 79L115.748 80L115 79L110.353 73.0547V83H109.197V70.9297H110.863L115.748 77.7422ZM128.512 83H127.355V70.9297H128.512V83ZM144.201 83H142.942L141.65 79.3789H136.415L135.14 83H133.882L138.285 70.9297H139.798L144.201 83ZM156 78L160.5 70.9297H162.166V83H161.01V73.0547L156.748 79.2578L156 80L155.252 79.2578L150.535 73.0547V83H149.38V70.9297H151.045L156 78ZM168.694 83H167.538V70.9297H168.694V83ZM87.9805 81.8779H93.5C95.3526 81.8778 96.3387 81.113 96.3389 79.6514C96.3389 78.2744 95.2848 77.4581 93.5 77.458H87.9805V81.8779ZM74.2686 78.2568H78.7051L76.4785 71.9668L74.2686 78.2568ZM136.823 78.2568H141.26L139.033 71.9668L136.823 78.2568ZM87.9805 76.3359H92.8193C94.7573 76.3359 95.8291 75.5875 95.8291 74.2275C95.8289 72.7828 94.8422 72.0518 92.8193 72.0518H87.9805V76.3359ZM114 59H113.059L64 58.8799V9H114V59ZM58 59H8V9H58V59ZM170 59H120V9H170V59ZM9 58H57V10H9V58ZM65.5459 58H112.454L88.5 11.2676L65.5459 58ZM113.567 58H113V10H88.9912L113.567 58ZM121 58H169V35H121V58ZM65 56.8438L88.0088 10H65V56.8438ZM121 34H169V10H121V34Z" fill="white"/>
</svg>
