<svg width="129" height="51" viewBox="0 0 129 51" fill="none" xmlns="http://www.w3.org/2000/svg">
<g clip-path="url(#clip0_17_121)">
<mask id="mask0_17_121" style="mask-type:luminance" maskUnits="userSpaceOnUse" x="0" y="0" width="129" height="51">
<path d="M129 0.190186H0V50.8096H129V0.190186Z" fill="white"/>
</mask>
<g mask="url(#mask0_17_121)">
<path d="M128.768 7.56082C126.412 9.75995 124.083 11.9348 121.727 14.137C120.727 13.5091 119.499 12.596 118.154 11.9166C113.295 9.45661 108.318 9.23214 103.349 11.5375C100.075 13.0571 97.9382 15.6961 96.8014 19.063C95.268 23.6008 95.2407 28.175 97.1642 32.6096C99.3192 37.5812 103.236 40.299 108.616 40.9331C111.75 41.303 114.783 40.7782 117.761 39.8076C118.246 39.6501 118.289 39.3859 118.289 38.9734C118.28 34.8027 118.283 30.635 118.283 26.4642C118.283 26.1882 118.283 25.9121 118.283 25.5664H128.945C128.96 25.8242 128.991 26.0881 128.991 26.355C128.991 32.6218 128.985 38.8885 129.006 45.1584C129.006 45.7073 128.839 46.0289 128.366 46.3048C125.732 47.8458 122.864 48.7467 119.919 49.4443C116.304 50.2999 112.655 50.8548 108.921 50.7974C97.4322 50.612 87.8758 42.7013 85.666 31.4722C84.3706 24.893 84.9772 18.5231 88.2356 12.5779C91.9301 5.83485 97.7401 1.9098 105.285 0.632787C111.704 -0.453124 117.877 0.444727 123.626 3.63574C125.498 4.67312 127.184 5.95619 128.778 7.56687L128.768 7.56082Z" fill="white"/>
<path d="M-0.000244697 1.13037H10.6931C10.6931 1.49133 10.6931 1.81286 10.6931 2.13439C10.6931 11.0826 10.687 20.0308 10.6962 28.9789C10.6962 31.1113 10.8791 33.2164 11.7082 35.2214C13.1226 38.6338 15.7746 40.4054 19.3563 40.9177C21.42 41.2123 23.4684 41.0879 25.4437 40.3963C28.9126 39.183 30.8056 36.6076 31.4946 33.1224C31.7628 31.7695 31.8451 30.3651 31.8512 28.9819C31.8817 20.0338 31.8664 11.0856 31.8664 2.13742C31.8664 1.83409 31.8664 1.5338 31.8664 1.1607H42.4928C42.517 1.31843 42.5689 1.48526 42.5689 1.64906C42.5627 11.2524 42.633 20.8588 42.514 30.4622C42.441 36.3528 40.2795 41.4608 35.8505 45.4799C32.3267 48.6739 28.0987 50.3242 23.3861 50.7154C18.2803 51.1402 13.4609 50.1723 9.14761 47.3243C3.66378 43.7026 0.841078 38.4762 0.152169 32.0456C0.018045 30.7928 0.00890012 29.5219 0.00585185 28.26C-0.00329297 19.5424 -0.000244697 10.8217 -0.000244697 2.10102V1.13037Z" fill="white"/>
<path d="M50.2051 1.13008H60.8496V15.611C61.2001 15.2743 61.389 15.0953 61.5752 14.9103C66.0288 10.4787 70.4854 6.04704 74.9267 1.60327C75.2953 1.23624 75.6581 1.07245 76.1856 1.07548C80.2487 1.09671 84.3122 1.08458 88.3788 1.08761C88.6195 1.08761 88.8633 1.11188 89.2169 1.13008C89.0034 1.37274 88.8848 1.52744 88.7473 1.66697C81.9437 8.44331 75.1582 15.2379 68.327 21.9869C63.9102 26.3488 57.1734 26.2335 52.9637 21.7837C51.1043 19.8181 50.2021 17.44 50.1744 14.7616C50.1318 10.3391 50.1594 5.91661 50.1594 1.49407C50.1594 1.39701 50.1836 1.29995 50.2082 1.13311L50.2051 1.13008Z" fill="white"/>
<path d="M89.0737 49.9117C88.8299 49.9117 88.5857 49.9117 88.342 49.9117C84.2788 49.9117 80.2184 49.9026 76.1549 49.9239C75.6278 49.9239 75.265 49.766 74.896 49.396C70.4762 44.9704 66.038 40.5601 61.6025 36.1467C61.4074 35.9526 61.2032 35.7706 60.8891 35.4703V49.8543H50.199C50.1837 49.6358 50.1564 49.4143 50.1564 49.1958C50.1564 45.0009 50.1349 40.809 50.1595 36.6138C50.1929 31.1418 53.6924 26.9346 59.0421 26.0064C62.2824 25.4422 65.1753 26.2855 67.6716 28.43C68.016 28.7273 68.3423 29.0458 68.6656 29.3673C75.2891 35.9617 81.9104 42.5559 88.537 49.1475C88.7351 49.3446 88.9731 49.4992 89.1893 49.6719C89.1497 49.7511 89.1102 49.8329 89.0706 49.9117H89.0737Z" fill="white"/>
</g>
</g>
<defs>
<clipPath id="clip0_17_121">
<rect width="129" height="51" fill="white"/>
</clipPath>
</defs>
</svg>
