<svg width="184" height="37" viewBox="0 0 184 37" fill="none" xmlns="http://www.w3.org/2000/svg">
<g clip-path="url(#clip0_17_99)">
<path d="M41.9983 37L20.9999 0L0.00140381 37H41.9983ZM63.1776 35.3156L80.7262 1.68183H73.1359L61.0303 26.1078L48.9249 1.68183H41.3343L58.883 35.3156H63.1776ZM182.771 1.68183V35.3157H176.487V1.68183H182.771ZM147.791 22.7621C147.791 20.1409 148.331 17.8355 149.412 15.8459C150.492 13.8563 151.997 12.3246 153.929 11.2508C155.859 10.1771 158.118 9.64021 160.704 9.64021C162.995 9.64021 165.057 10.1455 166.889 11.1561C168.722 12.1667 170.178 13.6668 171.258 15.6564C172.339 17.646 172.895 20.0778 172.928 22.9517V24.4201H154.42C154.55 26.5045 155.156 28.1468 156.236 29.3468C157.349 30.5153 158.838 31.0996 160.704 31.0996C161.881 31.0996 162.962 30.7838 163.943 30.1522C164.925 29.5205 165.662 28.6678 166.153 27.594L172.584 28.0678C171.798 30.4363 170.326 32.3312 168.166 33.7524C166.005 35.1735 163.518 35.8841 160.704 35.8841C158.118 35.8841 155.859 35.3472 153.929 34.2735C151.997 33.1997 150.492 31.668 149.412 29.6784C148.331 27.6888 147.791 25.3834 147.791 22.7621ZM166.447 20.3935C166.218 18.3408 165.58 16.8407 164.533 15.8933C163.485 14.9143 162.209 14.4247 160.704 14.4247C158.969 14.4247 157.562 14.9458 156.482 15.988C155.401 17.0302 154.73 18.4987 154.469 20.3935H166.447ZM137.19 15.8933C138.237 16.7459 138.892 17.9303 139.154 19.4461L145.635 19.1146C145.405 17.1881 144.734 15.5143 143.622 14.0932C142.509 12.672 141.068 11.5824 139.301 10.8245C137.567 10.035 135.652 9.64021 133.557 9.64021C130.972 9.64021 128.714 10.1771 126.782 11.2508C124.851 12.3246 123.346 13.8563 122.266 15.8459C121.186 17.8355 120.646 20.1409 120.646 22.7621C120.646 25.3834 121.186 27.6888 122.266 29.6784C123.346 31.668 124.851 33.1997 126.782 34.2735C128.714 35.3472 130.972 35.8841 133.557 35.8841C135.718 35.8841 137.681 35.4893 139.449 34.6998C141.216 33.8787 142.656 32.726 143.769 31.2417C144.882 29.7574 145.553 28.0204 145.781 26.0308L139.252 25.7466C139.023 27.4203 138.385 28.7152 137.338 29.631C136.29 30.5153 135.03 30.9575 133.557 30.9575C131.528 30.9575 129.957 30.2469 128.844 28.8257C127.732 27.4045 127.175 25.3834 127.175 22.7621C127.175 20.1409 127.732 18.1198 128.844 16.6986C129.957 15.2774 131.528 14.5668 133.557 14.5668C134.965 14.5668 136.176 15.009 137.19 15.8933ZM105.312 10.2075H111.159L111.329 15.0397C111.744 13.6719 112.321 12.6097 113.06 11.8532C114.132 10.756 115.627 10.2075 117.543 10.2075H119.931V15.3796H117.495C116.13 15.3796 115.009 15.5677 114.132 15.9438C113.287 16.32 112.638 16.9155 112.183 17.7305C111.76 18.5455 111.55 19.58 111.55 20.8338V35.3156H105.312V10.2075ZM78.3391 15.8459C77.259 17.8355 76.7189 20.1409 76.7189 22.7621C76.7189 25.3834 77.259 27.6888 78.3391 29.6784C79.4192 31.668 80.9242 33.1997 82.8555 34.2735C84.7868 35.3472 87.0447 35.8841 89.6305 35.8841C92.4453 35.8841 94.9328 35.1735 97.0931 33.7524C99.2526 32.3312 100.726 30.4363 101.511 28.0678L95.0796 27.594C94.5887 28.6678 93.8527 29.5205 92.8709 30.1522C91.8891 30.7838 90.809 31.0996 89.6305 31.0996C87.7653 31.0996 86.2757 30.5153 85.1633 29.3468C84.0832 28.1468 83.4778 26.5045 83.3465 24.4201H101.855V22.9517C101.822 20.0778 101.266 17.646 100.186 15.6564C99.1058 13.6668 97.6493 12.1667 95.8163 11.1561C93.9833 10.1455 91.9214 9.64021 89.6305 9.64021C87.0447 9.64021 84.7868 10.1771 82.8555 11.2508C80.9242 12.3246 79.4192 13.8563 78.3391 15.8459ZM93.4601 15.8933C94.5072 16.8407 95.1456 18.3408 95.3746 20.3935H83.3956C83.6576 18.4987 84.3283 17.0302 85.4084 15.988C86.4885 14.9458 87.8959 14.4247 89.6305 14.4247C91.1363 14.4247 92.4123 14.9143 93.4601 15.8933Z" fill="white"/>
</g>
<defs>
<clipPath id="clip0_17_99">
<rect width="184" height="37" fill="white"/>
</clipPath>
</defs>
</svg>
